<?xml version='1.0' encoding='iso-8859-1'?>
<!-- Uploaded to: SVG Repo, www.svgrepo.com, Generator: SVG Repo Mixer Tools -->
<svg fill="#000000" height="800px" width="800px" version="1.1" xmlns="http://www.w3.org/2000/svg" viewBox="0 0 296.5 296.5" xmlns:xlink="http://www.w3.org/1999/xlink" enable-background="new 0 0 296.5 296.5">
  <g>
    <path d="m98.215,139c-28.669,12.885-48.646,41.67-48.646,75.141 0,45.485 36.874,82.359 82.359,82.359 45.488,0 82.362-36.874 82.362-82.359 0-33.471-19.977-62.256-48.647-75.141h-67.428z"/>
    <path d="M235.433,16h-20.338c-0.308,0-0.61,0.024-0.912,0.048C213.369,7.05,205.815,0,196.606,0H99.921   c-9.752,0-17.99,7.902-17.99,17.654V65h33v17.084c-9,0.836-16,8.381-16,17.573V123h66V99.657c0-9.53-7-17.275-17-17.624V65   l33.076-0.002c3.041,19.681,8.364,44.891,17.511,77.345c1.199,4.252,5.664,6.727,9.916,5.528c4.253-1.198,6.508-5.55,5.31-9.803   c-8.927-31.67-13.215-55.6-15.083-73.201c8.249-0.961,14.763-7.602,15.518-15.914c0.302,0.024,0.61,0.047,0.917,0.047h20.338   c6.507,0,11.498-5.324,11.498-11.832v-9.336C246.931,21.324,241.939,16,235.433,16z"/>
  </g>
</svg>